<?xml version="1.0" encoding="UTF-8"?>
<!DOCTYPE svg PUBLIC "-//W3C//DTD SVG 1.1//EN" "http://www.w3.org/Graphics/SVG/1.1/DTD/svg11.dtd">
<!-- Creator: CorelDRAW X6 -->
<svg xmlns="http://www.w3.org/2000/svg" xml:space="preserve" width="122px" height="59px" version="1.1" style="shape-rendering:geometricPrecision; text-rendering:geometricPrecision; image-rendering:optimizeQuality; fill-rule:evenodd; clip-rule:evenodd"
viewBox="0 0 122 59"
 xmlns:xlink="http://www.w3.org/1999/xlink">
 <defs>
  <style type="text/css">
   <![CDATA[
    .fil11 {fill:#373435}
    .fil7 {fill:#021505}
    .fil6 {fill:#04230B}
    .fil8 {fill:#081707}
    .fil2 {fill:#183C23}
    .fil4 {fill:#193B22}
    .fil3 {fill:#193E23}
    .fil5 {fill:#1A3D23}
    .fil10 {fill:#499816}
    .fil1 {fill:#569F21}
    .fil9 {fill:#56A11D}
    .fil0 {fill:#EA9025}
    .fil12 {fill:#FBF8EE}
   ]]>
  </style>
 </defs>
 <g id="Capa_x0020_1">
  <metadata id="CorelCorpID_0Corel-Layer"/>
  <g id="_467799848">
   <path class="fil0" d="M34 56c-1,0 -4,0 -5,0l-2 0 0 0 0 0 0 1 -5 0c-2,0 -4,0 -6,0 -2,2 -6,1 -9,0 3,4 9,3 13,2 5,0 30,0 32,0 5,-2 4,-7 3,-11 -1,-5 -1,-10 -2,-14 -1,-5 -1,-10 -2,-14 0,-2 0,-5 -2,-6 -1,-1 -2,0 -4,0 0,0 -4,0 -3,0 0,-16 -24,-16 -24,0 -3,0 -7,-1 -8,2 0,0 0,0 0,0 0,0 0,1 0,1 3,-2 6,-1 9,0l0 0c0,-1 1,-2 2,-2 1,0 3,0 3,1 0,0 1,1 1,1 7,0 15,0 18,0 5,0 4,0 5,5 1,6 2,12 2,18 0,3 3,16 1,18 -2,2 -16,1 -19,1zm7 -45l-18 0 0 0 0 0 0 -1c0,-2 1,-5 3,-6 1,-1 2,-1 3,-2 1,0 3,-1 4,-1 1,0 2,0 4,1 2,1 4,3 4,5 0,1 1,3 1,4 -1,0 -18,0 -18,0 1,0 18,0 18,0z"/>
   <path class="fil1" d="M48 41c0,0 2,-4 2,-5 1,-2 2,-3 3,-4 2,-3 4,-7 4,-11 -2,1 -5,4 -6,7 -1,3 0,8 -3,10 0,-1 0,-11 0,-12l-6 0 0 2c-2,0 -3,-7 -5,-9 -2,-2 -6,-5 -8,-5 1,3 2,6 4,8 2,3 5,3 7,5 3,4 2,5 2,9 0,1 0,5 0,5 0,0 5,0 6,0z"/>
   <path class="fil2" d="M57 49c1,2 4,3 8,2 3,-1 4,-4 3,-7 -2,-3 -5,-2 -7,-4 -1,-1 0,-3 2,-3 2,0 3,2 3,2 0,-1 1,-1 1,-2l1 0c-3,-4 -9,-3 -10,0 -1,1 0,3 0,4 2,2 6,2 7,4 1,2 -1,3 -2,2 -1,0 -2,0 -2,-1 0,0 0,0 -1,-1l-1 -1c0,1 -1,1 -2,2z"/>
   <path class="fil3" d="M61 30l0 -4c2,0 5,-1 5,2 0,3 -3,2 -5,2zm0 -10c2,0 5,-1 5,2 0,2 -3,2 -5,2l0 -4zm5 13c2,-1 3,-2 3,-4 0,-2 -1,-4 -2,-4 2,-2 2,-6 -1,-7 -1,0 0,0 -2,0l-6 0 0 15 8 0z"/>
   <path class="fil3" d="M84 23l0 -1 -2 0 0 11 3 0 0 -7c0,-1 0,-1 0,0 0,0 0,0 0,0 0,0 0,0 0,0 1,-1 2,-1 3,-1 0,0 0,0 0,0 0,0 0,0 0,0 0,0 0,0 0,1 0,1 0,2 0,2 0,1 0,3 0,4l3 0c0,-1 0,-5 0,-6 0,0 0,0 0,-1 0,-1 0,-1 0,0 1,0 1,-1 2,-1 1,0 1,1 2,1 0,-1 0,3 0,3 0,1 0,3 0,4l3 0c0,-2 0,-6 0,-7 0,-1 0,-1 0,-1 -1,-4 -6,-4 -7,-1 -1,-1 -2,-2 -3,-2 -1,0 -2,0 -3,1 0,0 0,0 -1,1z"/>
   <path class="fil4" d="M108 28c0,1 -2,3 -4,2 -2,-1 -2,-3 -1,-5 0,-3 6,-3 5,3zm-5 3c2,3 8,2 8,-4 0,-5 -4,-8 -8,-5l0 -6 -3 0 0 16 3 0 0 -1z"/>
   <path class="fil4" d="M99 43c4,-1 4,5 1,6 -2,1 -3,0 -3,-2 0,-2 0,-4 2,-4zm-2 8c0,0 0,0 0,0 1,0 1,1 2,1 2,0 4,-1 5,-3 2,-4 -1,-10 -5,-9 -1,0 -2,1 -2,1l0 -1c0,0 0,0 0,0l-2 0 0 15 3 0 0 -5 0 0z"/>
   <path class="fil5" d="M73 44c1,0 1,-1 3,-1 0,0 1,0 1,1 1,1 0,5 0,8l3 0c0,-2 0,-8 -1,-9 -1,-2 -5,-3 -6,-1l0 -6c0,0 0,0 0,0l0 1c0,1 0,4 0,4 0,-1 0,-4 0,-6l-3 0 0 15c1,0 2,0 3,0 0,-1 0,-3 0,-4 0,0 0,-4 1,-3z"/>
   <path class="fil4" d="M77 28c0,1 0,2 -1,3 -1,0 -2,0 -3,0 -2,-2 1,-3 3,-2zm-5 -4c0,0 0,1 1,1 0,0 0,0 0,0l0 0c0,0 0,0 1,0 1,-1 3,-1 3,2 -2,0 -4,-1 -6,1 0,0 0,0 -1,1 -2,5 4,7 7,4l0 1 2 0c0,-2 0,-4 0,-6 0,-2 0,-4 -1,-5 0,0 0,0 0,0 -2,-2 -5,-1 -7,1 0,0 0,0 0,1 0,0 0,0 0,1z"/>
   <path class="fil3" d="M89 47c-1,4 -6,3 -5,-2 0,-2 2,-3 3,-2 1,0 2,2 2,4zm3 1c1,-4 -1,-6 -4,-7 -3,-1 -6,1 -7,4 -2,8 9,10 11,3z"/>
   <path class="fil3" d="M115 29c0,1 0,0 0,0l0 -7 -2 0c0,2 0,6 0,8 0,1 1,1 1,2 0,0 0,0 0,1 2,1 4,1 5,-1l0 1 3 0 0 -11 -3 0c0,2 0,5 0,7 0,2 -2,2 -3,2 0,0 0,0 -1,-1 0,0 0,0 0,0 0,0 0,0 0,0z"/>
   <path class="fil6" d="M73 44c0,-1 -1,3 -1,3 0,1 0,3 0,4 -1,0 -2,0 -3,0l0 -15 3 0c0,1 0,4 0,6 0,-1 0,-3 0,-4l0 -1c0,0 0,0 0,0 0,0 0,0 0,0l-3 0 0 16 3 0c0,-2 0,-5 0,-6 0,-1 0,-1 0,-2z"/>
   <path class="fil6" d="M66 32l-8 0 0 -15 6 0c1,0 1,0 2,0 -2,-1 -5,0 -8,0l0 16c2,0 6,0 8,0z"/>
   <path class="fil6" d="M95 25l0 8 3 0c0,-1 0,-8 0,-9 0,0 0,0 0,1 0,1 0,6 0,7l-3 0c0,-1 0,-3 0,-4 0,0 0,-4 0,-3z"/>
   <path class="fil6" d="M91 25c0,0 0,0 0,0 0,0 0,1 0,1 0,2 0,5 0,6l-3 0c0,-1 0,-3 0,-4 0,-1 0,-2 0,-2 0,0 0,-1 0,-1 0,0 0,0 0,0 0,0 0,0 0,0 0,1 0,1 1,2l0 7 3 0 0 -8z"/>
   <path class="fil7" d="M85 25c0,0 0,0 0,0l0 7 -3 0 0 -11 2 0 0 1 0 -1 -2 0 0 11 3 0 0 -7z"/>
   <path class="fil8" d="M113 31c0,-1 -1,-1 -1,-2 0,-2 0,-6 0,-8l2 0 0 7c0,1 0,1 0,0l0 -8 -3 0c0,2 0,4 0,6 0,1 0,3 1,4 0,0 0,0 0,0z"/>
   <path class="fil9" d="M56 33c-1,0 -6,2 -5,3 3,3 15,-1 12,-2 -2,-1 -5,-2 -8,-1z"/>
   <polygon class="fil1" points="34,57 39,57 39,56 39,43 39,43 34,43 34,43 "/>
   <path class="fil1" d="M42 24l6 0c0,0 0,-7 0,-8 0,-4 1,-6 -3,-6 -4,0 -3,2 -3,6 0,1 0,8 0,8z"/>
   <path class="fil1" d="M47 44l0 -1c-1,0 -3,0 -5,0 -1,0 -1,1 -1,1 0,1 0,10 0,12l5 0c0,-3 0,-9 0,-12 0,-1 0,-1 0,-1l0 0z"/>
   <path class="fil1" d="M34 41l6 0 0 -6c0,-4 0,-3 -4,-3 -2,0 -1,3 -1,4 0,1 0,5 0,5z"/>
   <path class="fil1" d="M39 28c-2,-3 -9,-2 -12,0 -1,1 9,3 12,0z"/>
   <path class="fil10" d="M42 57c1,0 5,0 6,0 0,-2 0,-4 0,-6 0,-1 0,-6 0,-6l0 0c-1,0 0,1 0,1 0,3 0,9 0,12l-5 0c0,-2 0,-11 0,-12 0,-1 0,-1 1,-1 1,0 3,0 5,0 0,-1 -1,0 -2,0 -1,0 -2,0 -3,0 -1,1 0,0 0,3l0 11z"/>
   <path class="fil11" d="M11 52c0,-1 1,-2 1,0 0,1 -1,1 -1,0zm4 -2c1,0 1,2 0,2 -1,0 -1,-1 0,-2zm-2 1c0,-1 1,-1 1,0 0,1 -1,1 -1,0zm23 -1c0,1 -1,2 -1,1 0,0 0,-2 1,-1zm-4 -1c1,1 0,2 -1,2 0,0 0,-1 0,-1 0,0 0,-1 1,-1zm1 1c0,-1 0,-2 1,-2 0,1 0,2 -1,2zm-31 -2c0,-2 -1,-4 0,-6 0,-2 1,-4 1,-5 0,2 0,3 1,5 1,2 2,3 3,3 -3,0 -4,2 -4,3zm14 -32c3,0 6,1 7,2 2,2 3,3 3,6 0,1 0,3 0,5 -1,4 -5,6 -9,6 -3,0 -6,-1 -7,-2 -4,-3 -4,-6 -3,-10 1,-3 5,-6 8,-6zm10 5c0,0 0,0 1,0 0,0 0,0 1,-1 1,-2 1,-4 -1,-5 -1,-1 -2,-1 -3,-1 -1,0 -2,1 -2,2 -3,-1 -6,-2 -9,0 0,0 0,0 0,-1 -1,-2 -4,-2 -5,0 -2,3 -1,6 1,6 0,1 0,1 -1,1 -1,2 -1,4 0,5 0,1 -1,2 -1,3 0,1 -1,2 -1,3 -2,3 -3,8 -3,13 0,1 1,3 1,3 0,2 0,2 0,3 1,1 1,2 2,2 1,1 1,1 2,2 3,2 10,4 12,0 3,0 3,-1 5,-1 3,1 7,2 10,1 1,0 2,-2 3,-3 4,-7 -1,-10 -4,-8 -1,1 -2,2 -3,3l0 -1c-1,0 -2,0 -3,0l0 0c0,0 0,0 0,0l0 1c-1,4 -3,6 -7,6 1,-3 -1,-6 -3,-7 -2,-1 -4,-1 -5,1 0,1 0,1 -1,2 0,-1 1,-3 2,-3 0,0 0,0 0,0l-1 -1c1,0 2,0 3,0 1,0 2,0 3,0 1,0 2,-2 2,-4 -1,-3 -6,-3 -6,-6 0,1 1,1 1,1 0,0 1,0 1,-1 3,-2 7,-2 10,-1 1,1 1,1 1,2 1,4 -2,6 1,8 2,1 4,-1 5,-2 1,-1 1,-4 0,-6 -1,-4 -3,-6 -5,-8 1,-1 2,-3 2,-5 0,-1 0,-2 0,-3 0,-1 -1,-2 -1,-3z"/>
   <path class="fil11" d="M14 23c1,0 1,1 0,1 0,0 -1,0 -1,0 0,0 0,0 0,-1zm2 1c1,-2 -1,-4 -3,-3 -1,1 -2,2 -3,4 -1,3 2,3 3,3 1,-1 2,-2 3,-4z"/>
   <path class="fil11" d="M22 23c0,1 -1,1 -1,0 0,0 0,-1 0,-1 0,0 0,0 1,0zm-2 0c0,1 2,3 2,4 2,1 3,-1 3,-2 0,-2 -1,-3 -2,-4 -2,-1 -3,0 -3,2z"/>
   <path class="fil11" d="M19 30c0,0 1,1 2,1 1,0 2,-2 1,-1 0,0 0,0 -1,1 -1,0 -1,0 -1,-1 0,0 0,0 0,-1 2,-1 2,-2 -1,-2 -2,0 -2,2 0,2 0,1 0,1 -1,1 -1,0 -1,-1 -2,-1 0,0 0,0 0,0 0,0 0,0 0,1 1,1 2,1 3,0z"/>
   <path class="fil12" d="M35 49c-1,0 -2,1 -1,1 0,0 1,0 1,-1z"/>
  </g>
 </g>
</svg>
