<?xml version="1.0" standalone="no"?>
<!DOCTYPE svg PUBLIC "-//W3C//DTD SVG 20010904//EN"
 "http://www.w3.org/TR/2001/REC-SVG-20010904/DTD/svg10.dtd">
<svg version="1.0" xmlns="http://www.w3.org/2000/svg"
 width="1024.000000pt" height="1024.000000pt" viewBox="0 0 1024.000000 1024.000000"
 preserveAspectRatio="xMidYMid meet">

<g transform="translate(0.000000,1024.000000) scale(0.100000,-0.100000)"
fill="#000000" stroke="none">
<path d="M4926 7608 c-14 -20 -16 -80 -16 -459 0 -357 -3 -445 -15 -485 -20
-65 -19 -87 4 -108 16 -14 43 -16 231 -14 l213 3 14 25 c15 25 15 25 -2 3 -17
-23 -21 -23 -230 -23 -246 0 -245 -1 -224 77 9 34 14 186 18 511 5 396 8 464
21 472 9 6 94 9 200 7 l184 -2 7 -25 c6 -21 7 -22 8 -4 2 41 -14 44 -210 44
-183 0 -188 -1 -203 -22z"/>
<path d="M5333 7125 c-1 -225 2 -420 5 -433 7 -22 5 636 -1 778 -2 36 -4 -119
-4 -345z"/>
<path d="M3880 7369 c0 -16 3 -19 13 -11 14 12 116 -33 205 -90 28 -18 72 -46
99 -62 131 -81 300 -234 370 -337 57 -82 100 -199 119 -317 8 -49 26 -83 94
-172 31 -41 68 -94 81 -117 13 -24 28 -43 32 -43 10 0 -45 86 -121 188 -48 64
-63 94 -72 139 -60 306 -202 485 -573 717 -54 34 -231 126 -242 126 -3 0 -5
-10 -5 -21z"/>
<path d="M3891 7327 c-2 -35 72 -244 117 -330 25 -49 75 -128 112 -176 113
-145 217 -228 383 -303 52 -24 108 -55 124 -69 77 -71 150 -169 218 -297 16
-28 30 -50 33 -48 6 7 -82 157 -132 226 -49 68 -132 151 -166 166 -14 7 -60
28 -102 47 -110 50 -182 103 -271 196 -134 140 -223 299 -286 506 -16 55 -30
92 -30 82z"/>
<path d="M6014 6768 c-99 -66 -273 -239 -342 -341 -109 -158 -149 -278 -156
-467 -4 -80 -3 -101 3 -70 5 25 10 79 11 120 7 208 102 385 320 600 136 134
235 205 251 179 5 -8 9 -9 9 -4 0 6 -4 16 -9 23 -6 10 -27 0 -87 -40z"/>
<path d="M6082 6705 c-56 -310 -177 -564 -397 -835 -147 -182 -278 -443 -306
-609 -4 -30 -13 -59 -19 -65 -7 -7 -91 -13 -218 -16 l-207 -6 197 -2 c108 -1
208 2 222 8 19 7 26 19 31 47 11 73 58 209 111 321 58 124 118 217 221 345 84
104 177 247 230 357 73 151 162 450 151 507 -2 10 -9 -13 -16 -52z"/>
<path d="M5350 6637 c0 -14 5 -29 10 -32 7 -4 8 3 4 22 -9 38 -14 42 -14 10z"/>
<path d="M4105 6439 c-125 -29 -293 -97 -375 -152 l-51 -35 45 -17 c26 -10 49
-16 51 -13 3 3 -14 10 -37 17 -40 12 -41 14 -23 28 34 25 154 83 233 112 83
31 207 58 287 64 38 3 33 4 -20 4 -38 1 -88 -3 -110 -8z"/>
<path d="M4298 6443 c6 -2 18 -2 25 0 6 3 1 5 -13 5 -14 0 -19 -2 -12 -5z"/>
<path d="M4410 6432 c81 -19 185 -70 220 -106 l21 -23 -83 -40 c-123 -60 -201
-82 -324 -92 -114 -10 -255 1 -367 29 -26 7 -50 10 -53 7 -8 -8 121 -35 234
-47 119 -14 263 -2 365 32 74 24 194 79 222 102 20 16 20 16 -10 41 -54 46
-186 105 -245 110 -54 4 -53 4 20 -13z"/>
<path d="M4933 6420 c-29 -12 -33 -33 -23 -110 l9 -65 -3 67 c-5 106 -11 103
211 104 103 1 199 -3 212 -8 24 -9 25 -25 3 -93 -3 -11 -6 -209 -7 -440 l-1
-420 6 415 c4 294 10 432 20 474 20 86 19 86 -214 85 -105 0 -201 -4 -213 -9z"/>
<path d="M4896 6051 c13 -34 15 -90 11 -402 -2 -200 -7 -377 -10 -394 -4 -16
0 -7 7 20 22 77 22 745 1 785 -22 43 -28 37 -9 -9z"/>
<path d="M4310 5933 c-8 -3 -23 -12 -32 -21 -17 -14 -18 -40 -16 -311 l2 -296
6 295 c3 162 9 301 13 308 11 17 372 18 383 1 4 -7 6 -126 5 -265 -2 -206 1
-270 15 -344 14 -71 15 -93 5 -103 -8 -8 -71 -13 -204 -15 -105 -2 -194 -5
-197 -8 -2 -3 85 -4 194 -2 190 3 199 4 216 25 17 21 17 25 -2 100 -16 68 -18
112 -17 346 2 199 -1 271 -10 280 -13 13 -331 22 -361 10z"/>
<path d="M6005 5923 c-117 -25 -224 -81 -307 -163 -59 -57 -70 -73 -58 -80 8
-5 20 -10 25 -10 6 0 4 4 -4 9 -39 25 114 152 239 200 98 38 176 50 300 44 93
-4 274 -33 325 -53 15 -6 32 -10 38 -9 25 1 -71 30 -167 50 -132 27 -299 32
-391 12z"/>
<path d="M6659 5827 c12 -15 2 -22 -100 -72 -215 -103 -409 -150 -584 -142
-96 5 -216 27 -280 52 -14 6 -17 5 -10 -3 6 -6 44 -20 85 -32 107 -31 287 -38
405 -15 160 30 363 105 479 178 l39 25 -24 12 c-22 12 -23 12 -10 -3z"/>
<path d="M5521 5775 c0 -11 -8 -30 -16 -41 -23 -34 -155 -287 -151 -291 5 -5
43 62 90 156 21 41 49 94 62 117 14 24 23 51 21 61 -4 15 -5 15 -6 -2z"/>
<path d="M4251 5284 c0 -11 3 -14 6 -6 3 7 2 16 -1 19 -3 4 -6 -2 -5 -13z"/>
<path d="M4233 5244 c-7 -19 12 -64 27 -64 7 0 4 7 -5 16 -10 11 -14 25 -11
40 7 27 -1 33 -11 8z"/>
<path d="M4890 5211 c0 -10 29 -36 34 -30 1 2 -6 12 -16 22 -10 9 -18 13 -18
8z"/>
<path d="M4250 5038 c-24 -26 -23 -21 -5 -82 12 -41 15 -134 15 -543 l0 -493
215 0 214 0 3 533 c2 292 7 539 11 547 4 10 1 23 -9 35 -16 20 -16 20 -8 0 6
-19 6 -38 0 -80 -2 -11 -4 -246 -5 -522 l-1 -503 -205 0 -205 0 0 488 c0 381
-3 499 -13 533 -17 55 -8 85 28 91 15 3 103 5 196 4 93 -1 175 2 182 6 6 4
-79 8 -190 8 -195 0 -203 -1 -223 -22z"/>
<path d="M4911 5044 c-20 -14 -22 -22 -16 -53 4 -20 10 -270 14 -556 l7 -520
2 497 c1 350 -1 511 -10 547 -10 45 -9 53 6 70 17 18 31 19 231 18 117 -1 208
1 202 5 -7 4 -102 8 -212 8 -169 0 -204 -3 -224 -16z"/>
<path d="M5361 5014 c0 -11 3 -14 6 -6 3 7 2 16 -1 19 -3 4 -6 -2 -5 -13z"/>
<path d="M5342 4929 c-8 -43 -12 -224 -12 -532 l0 -467 -187 -3 -188 -2 193
-3 192 -2 0 475 c0 302 4 492 11 525 6 27 9 56 6 63 -2 6 -9 -18 -15 -54z"/>
<path d="M6080 3059 c-131 -17 -252 -106 -280 -207 -18 -66 -12 -162 14 -217
43 -94 121 -143 314 -199 158 -46 183 -57 216 -97 25 -29 28 -39 23 -83 -3
-40 -11 -55 -35 -77 -40 -36 -103 -53 -173 -46 -90 8 -154 49 -191 122 -11 22
-22 41 -23 43 -7 7 -180 -78 -183 -90 -5 -27 66 -134 115 -174 77 -63 147 -86
278 -92 133 -5 210 11 290 63 98 62 145 156 145 284 -2 171 -87 260 -308 321
-167 46 -218 67 -247 101 -27 33 -31 64 -13 103 16 37 50 56 115 62 104 11
196 -30 230 -102 9 -19 20 -34 25 -34 15 0 163 63 176 75 11 10 10 20 -8 54
-52 103 -152 170 -287 190 -80 12 -99 12 -193 0z"/>
<path d="M810 2505 l0 -556 283 3 c317 3 355 10 443 77 122 93 152 288 63 411
-28 38 -92 80 -124 80 -27 0 -16 14 25 33 70 32 119 117 120 208 1 121 -70
225 -185 270 -57 22 -76 23 -342 27 l-283 4 0 -557z m516 349 c42 -20 64 -59
64 -113 0 -57 -18 -90 -62 -112 -31 -16 -59 -19 -173 -19 l-135 0 0 130 0 130
136 0 c105 0 144 -4 170 -16z m35 -447 c94 -63 88 -199 -12 -249 -28 -15 -61
-18 -181 -18 l-148 0 0 145 0 145 154 0 c142 0 155 -2 187 -23z"/>
<path d="M4010 2505 l0 -555 105 0 105 0 0 47 0 47 33 -31 c48 -46 94 -65 169
-71 86 -6 150 10 216 55 102 70 159 181 169 333 10 161 -32 285 -127 374 -73
67 -141 91 -244 84 -80 -5 -124 -24 -178 -76 l-38 -36 0 192 0 192 -105 0
-105 0 0 -555z m501 70 c51 -48 79 -119 79 -200 0 -100 -15 -143 -65 -192 -51
-48 -111 -63 -176 -44 -90 27 -129 97 -129 236 0 69 4 90 28 136 37 74 84 101
169 96 53 -2 67 -7 94 -32z"/>
<path d="M6700 2505 l0 -555 109 0 109 0 1 265 c0 240 2 270 20 310 25 56 59
78 130 83 44 2 63 -1 89 -18 58 -36 62 -58 62 -365 l0 -275 111 0 110 0 -3
318 c-3 306 -4 319 -26 367 -47 102 -114 146 -233 153 -93 5 -159 -14 -217
-63 -22 -19 -42 -35 -44 -35 -1 0 -2 83 0 185 l3 185 -110 0 -111 0 0 -555z"/>
<path d="M1950 2770 c-72 -26 -123 -69 -160 -134 -17 -28 -30 -55 -30 -59 0
-4 21 -17 47 -28 27 -11 63 -27 81 -36 18 -9 34 -14 35 -12 1 2 9 17 17 34 37
72 154 100 228 55 34 -21 62 -72 62 -113 0 -24 -1 -24 -127 -30 -188 -8 -266
-38 -326 -124 -24 -33 -31 -55 -34 -110 -7 -94 9 -146 61 -198 58 -57 124 -79
225 -73 82 5 120 20 176 69 l35 31 0 -46 0 -46 100 0 100 0 0 289 c0 259 -2
295 -20 353 -25 81 -73 138 -142 168 -76 33 -249 38 -328 10z m277 -517 c-10
-94 -66 -145 -161 -147 -65 0 -100 20 -116 68 -9 29 -8 41 6 72 24 51 59 63
178 64 l99 0 -6 -57z"/>
<path d="M2925 2767 c-27 -13 -65 -39 -82 -57 l-33 -34 0 50 0 49 -102 -3
-103 -3 0 -410 0 -409 107 0 107 0 3 278 c3 244 5 281 21 310 29 52 72 74 139
69 67 -4 102 -30 118 -86 5 -20 10 -156 10 -303 l0 -268 110 0 110 0 0 267 c0
252 1 269 21 311 28 57 69 82 136 82 44 0 58 -5 87 -30 49 -44 56 -89 56 -380
l0 -250 105 0 105 0 0 303 c0 347 -4 375 -70 450 -57 65 -128 90 -235 85 -93
-5 -166 -38 -217 -98 -18 -21 -32 -30 -35 -23 -10 28 -48 65 -91 90 -38 22
-60 28 -131 31 -75 3 -93 0 -136 -21z"/>
<path d="M7848 2771 c-73 -24 -116 -51 -166 -105 -83 -90 -118 -199 -109 -343
14 -234 172 -383 406 -383 134 0 249 50 324 142 102 125 125 327 54 482 -47
103 -155 189 -269 216 -67 15 -177 11 -240 -9z m238 -188 c16 -12 43 -45 60
-75 26 -47 29 -63 29 -138 0 -71 -4 -93 -25 -135 -41 -81 -110 -115 -208 -100
-37 5 -55 15 -87 49 -49 50 -65 99 -65 195 0 107 40 183 115 217 44 21 143 14
181 -13z"/>
<path d="M8872 2774 c-24 -9 -62 -34 -84 -55 -23 -21 -43 -39 -45 -39 -1 0 -3
20 -3 45 l0 45 -105 0 -105 0 0 -553 c0 -305 2 -556 4 -558 2 -2 52 -3 110 -1
l106 3 0 193 0 193 40 -38 c125 -119 357 -79 471 79 61 86 82 168 77 305 -7
181 -64 288 -188 356 -57 31 -73 35 -150 38 -59 2 -98 -2 -128 -13z m165 -192
c83 -59 112 -231 60 -346 -71 -155 -293 -137 -342 27 -39 131 0 272 89 329 44
27 148 22 193 -10z"/>
<path d="M4912 2465 c3 -301 4 -312 27 -362 76 -168 308 -218 450 -97 l41 36
0 -46 0 -46 105 0 105 0 -2 412 -3 411 -107 1 -107 1 -3 -281 c-3 -266 -4
-283 -23 -304 -31 -34 -74 -52 -125 -52 -67 0 -105 23 -123 74 -16 43 -26 227
-27 455 l0 102 -106 3 -105 3 3 -310z"/>
</g>
</svg>
