<svg viewBox="0 0 1440 1024" xmlns="http://www.w3.org/2000/svg" class="w-full h-full">
  <rect width="1440" height="1024" fill="#ffffff" />
  <path d="M0 0H1440V980C1440 1000 1420 1024 1400 1024H40C20 1024 0 1000 0 980V0Z" fill="#E6F4EF" />
  <path d="M0 100C200 150 350 170 550 140C750 110 1000 60 1440 200V0H0V100Z" fill="#BEE4D3" fill-opacity="0.6" />
  <path d="M0 1024C200 900 700 880 1040 980C1340 1070 1440 950 1440 950V1024H0Z" fill="#059669" fill-opacity="0.75" />
  <ellipse cx="120" cy="120" rx="260" ry="100" fill="#059669" fill-opacity="0.18" />
  <ellipse cx="1320" cy="920" rx="230" ry="90" fill="#059669" fill-opacity="0.15" />
</svg>
